<?xml version="1.0" standalone="no"?>
<!DOCTYPE svg PUBLIC "-//W3C//DTD SVG 20010904//EN"
 "http://www.w3.org/TR/2001/REC-SVG-20010904/DTD/svg10.dtd">
<svg version="1.0" xmlns="http://www.w3.org/2000/svg"
 width="300.000000pt" height="174.000000pt" viewBox="0 0 300.000000 174.000000"
 preserveAspectRatio="xMidYMid meet">
<g transform="translate(0.000000,174.000000) scale(0.100000,-0.100000)"
fill="#000000" stroke="none">
<path d="M786 1552 c-9 -15 1 -19 69 -27 96 -11 145 -25 235 -67 114 -54 237
-175 293 -289 35 -72 83 -249 68 -249 -5 0 -16 9 -26 20 -22 25 -35 26 -35 3
0 -10 19 -33 41 -52 l41 -33 39 38 c39 38 50 64 27 64 -6 0 -22 -10 -35 -22
l-23 -21 0 34 c0 56 -27 148 -70 235 -74 151 -221 279 -385 336 -89 30 -228
48 -239 30z"/>
<path d="M605 1401 c-16 -10 -101 -90 -187 -178 -132 -133 -158 -164 -158
-189 0 -25 47 -76 338 -367 256 -255 343 -337 362 -337 17 0 70 46 202 177
164 163 179 181 176 209 -3 27 -56 85 -322 355 -176 178 -329 329 -340 336
-28 17 -36 16 -71 -6z m377 -348 c181 -181 328 -332 328 -338 0 -16 -333 -345
-350 -345 -19 0 -660 640 -660 659 0 17 49 71 64 71 15 0 206 192 206 207 0
15 60 72 75 73 5 0 157 -147 337 -327z"/>
<path d="M1870 1380 c-19 -19 -20 -33 -20 -498 0 -451 1 -480 18 -495 16 -15
50 -17 270 -17 239 0 253 1 272 20 19 19 20 33 20 494 l0 475 -26 20 c-25 20
-39 21 -270 21 -231 0 -245 -1 -264 -20z m125 -30 c4 -6 63 -10 145 -10 82 0
141 4 145 10 8 13 92 13 100 1 3 -5 5 -218 6 -472 0 -367 -3 -464 -13 -471 -7
-4 -115 -8 -240 -8 -193 0 -229 2 -242 16 -14 14 -16 70 -16 468 0 338 3 455
12 464 14 14 94 16 103 2z"/>
<path d="M2455 1370 c-10 -16 13 -30 51 -30 74 0 181 -60 228 -128 29 -43 70
-141 62 -150 -3 -3 -14 6 -25 19 -16 19 -22 22 -32 11 -11 -10 -5 -20 26 -52
21 -22 44 -40 50 -40 6 0 28 20 48 45 33 39 36 46 21 52 -11 4 -23 -2 -35 -18
l-17 -24 -7 30 c-33 153 -163 274 -313 292 -34 4 -52 2 -57 -7z"/>
<path d="M2450 935 c0 -13 27 -15 183 -15 129 0 187 -4 195 -12 14 -14 16 -94
2 -103 -6 -4 -10 -63 -10 -145 0 -82 4 -141 10 -145 14 -9 13 -92 -2 -101 -6
-4 -93 -6 -194 -5 -175 2 -183 1 -194 -18 -11 -21 -10 -21 193 -21 195 0 205
1 223 21 17 19 19 42 22 263 3 234 2 243 -18 269 l-21 27 -195 0 c-166 0 -194
-2 -194 -15z"/>
<path d="M85 845 c-30 -37 -34 -46 -21 -51 10 -4 23 3 35 17 l18 23 7 -58 c34
-271 260 -513 532 -571 90 -19 164 -20 164 -1 0 9 -21 15 -72 21 -306 30 -554
266 -593 564 l-7 55 25 -30 c21 -23 28 -27 38 -16 11 10 5 20 -26 52 -21 22
-44 40 -51 40 -6 0 -28 -20 -49 -45z"/>
</g>
</svg>
